<svg xmlns="http://www.w3.org/2000/svg" viewBox="0 0 128 128">
  <defs>
    <linearGradient id="bg" x1="0" y1="0" x2="1" y2="1">
      <stop offset="0" stop-color="#ff2f43"/>
      <stop offset="1" stop-color="#6f0010"/>
    </linearGradient>
    <radialGradient id="shine" cx="0.32" cy="0.22" r="0.6">
      <stop offset="0" stop-color="#ffc3cc" stop-opacity="0.9"/>
      <stop offset="1" stop-color="#ffffff" stop-opacity="0"/>
    </radialGradient>
  </defs>

  <path d="M64 8C35 8 12 29 12 56c0 18 10 33 26 42 3 2 6 5 8 8l10 14c2 3 6 3 8 0l10-14c2-3 5-6 8-8 16-9 26-24 26-42C116 29 93 8 64 8z" fill="url(#bg)"/>
  <ellipse cx="64" cy="36" rx="36" ry="20" fill="url(#shine)"/>

  <circle cx="49" cy="57" r="10" fill="#f7f7f7"/>
  <circle cx="79" cy="57" r="10" fill="#f7f7f7"/>
  <circle cx="49" cy="57" r="5" fill="#1a1a1a"/>
  <circle cx="79" cy="57" r="5" fill="#1a1a1a"/>
  <path d="M64 66l-8 10h16z" fill="#1a1a1a"/>
  <rect x="46" y="82" width="36" height="16" rx="5" fill="#f7f7f7"/>
  <rect x="50" y="86" width="4" height="8" fill="#3a3a3a"/>
  <rect x="58" y="86" width="4" height="8" fill="#3a3a3a"/>
  <rect x="66" y="86" width="4" height="8" fill="#3a3a3a"/>
  <rect x="74" y="86" width="4" height="8" fill="#3a3a3a"/>
</svg>
